<?xml version="1.0" standalone="no"?>
<!DOCTYPE svg PUBLIC "-//W3C//DTD SVG 20010904//EN"
 "http://www.w3.org/TR/2001/REC-SVG-20010904/DTD/svg10.dtd">
<svg version="1.0" xmlns="http://www.w3.org/2000/svg"
 width="428.000000pt" height="428.000000pt" viewBox="0 0 428.000000 428.000000"
 preserveAspectRatio="xMidYMid meet">
<metadata>
Created by potrace 1.14, written by Peter Selinger 2001-2017
</metadata>
<g transform="translate(0.000000,428.000000) scale(0.100000,-0.100000)"
fill="#000000" stroke="none">
<path d="M2160 4023 c-7 -26 -14 -52 -16 -58 -1 -5 -8 -23 -15 -40 -6 -16 -13
-34 -15 -40 -1 -5 -8 -23 -15 -40 -7 -16 -13 -32 -14 -35 -2 -6 -24 -60 -32
-80 -3 -8 -5 -18 -5 -22 1 -5 -3 -8 -8 -8 -5 0 -10 -6 -10 -12 0 -17 -94 -202
-150 -298 -25 -41 -43 -78 -42 -82 1 -5 -2 -8 -8 -8 -5 0 -10 -8 -10 -17 0 -9
-3 -13 -7 -10 -6 7 -22 -16 -42 -60 -6 -13 -15 -23 -20 -23 -5 0 -11 -8 -15
-17 -6 -21 -25 -50 -46 -73 -8 -9 -24 -28 -35 -44 -11 -15 -34 -47 -52 -69
-18 -23 -30 -43 -28 -45 2 -2 -9 -17 -25 -32 -16 -15 -27 -30 -25 -32 3 -2 -9
-19 -25 -37 -17 -18 -30 -36 -30 -40 0 -4 -9 -16 -20 -26 -11 -10 -17 -22 -14
-26 3 -5 0 -9 -6 -9 -6 0 -14 -10 -19 -22 -5 -13 -17 -32 -25 -43 -35 -43 -86
-128 -86 -143 0 -8 -3 -13 -6 -9 -4 3 -19 -19 -35 -49 -15 -31 -33 -62 -40
-70 -6 -8 -8 -14 -4 -14 5 0 0 -9 -10 -20 -10 -11 -14 -20 -9 -20 5 0 4 -4 -1
-8 -9 -6 -71 -146 -81 -182 -2 -8 -13 -46 -24 -85 -11 -38 -23 -83 -26 -100
-3 -16 -9 -47 -15 -68 -5 -20 -7 -42 -4 -47 3 -5 2 -11 -3 -13 -9 -6 -7 -312
2 -372 14 -83 57 -235 85 -299 17 -36 27 -66 23 -66 -4 0 -2 -4 3 -8 12 -8 36
-50 66 -110 11 -24 27 -46 35 -49 8 -3 14 -11 14 -18 0 -7 18 -31 40 -54 22
-22 40 -44 40 -49 0 -4 14 -18 30 -32 17 -14 30 -31 30 -38 0 -7 4 -11 8 -8 5
3 22 -8 37 -24 16 -17 35 -30 42 -30 7 0 13 -7 13 -16 0 -8 5 -12 10 -9 5 3
10 1 10 -4 0 -6 7 -11 15 -11 8 0 15 -4 15 -8 0 -5 12 -15 28 -23 15 -8 29
-17 32 -20 5 -5 78 -40 155 -74 41 -18 124 -46 155 -51 14 -3 32 -7 40 -9 55
-15 195 -22 305 -15 47 3 221 38 244 50 28 13 125 51 139 54 8 1 17 7 20 12 4
5 14 10 22 12 8 2 17 8 18 13 2 5 9 9 16 9 10 0 90 52 106 70 3 3 21 17 40 32
54 40 100 86 100 97 0 6 6 11 13 11 6 0 28 22 47 47 19 26 41 52 48 60 7 7 10
13 6 13 -4 0 1 8 10 19 15 17 86 129 86 137 0 1 13 31 29 66 93 201 132 498
96 722 -16 98 -58 261 -81 313 -8 17 -14 38 -14 47 0 9 -5 16 -12 16 -6 0 -9
3 -6 6 3 3 -12 41 -33 85 -21 43 -38 82 -38 85 0 4 -3 10 -8 13 -12 9 -46 61
-60 94 -7 15 -17 27 -23 27 -5 0 -9 4 -7 9 2 11 -101 172 -117 183 -6 4 -7 8
-3 8 4 0 -4 12 -18 27 -14 15 -25 34 -25 41 0 7 -4 10 -10 7 -5 -3 -10 0 -10
7 0 7 -10 25 -23 40 -39 48 -62 83 -59 91 1 4 -2 7 -8 7 -5 0 -16 12 -24 28
-8 15 -26 39 -40 54 -14 15 -26 32 -26 38 0 5 -4 10 -10 10 -5 0 -10 7 -10 15
0 8 -4 15 -10 15 -5 0 -10 4 -10 10 0 9 -19 35 -46 64 -6 7 -15 22 -18 34 -4
12 -11 22 -15 22 -5 0 -14 14 -21 30 -7 17 -17 30 -22 30 -5 0 -7 4 -4 8 3 5
-3 18 -14 29 -10 12 -17 23 -14 26 2 2 -2 10 -11 17 -8 7 -15 19 -15 26 0 8
-5 14 -11 14 -5 0 -7 5 -4 10 3 6 3 10 -2 10 -4 0 -17 20 -28 45 -11 25 -24
45 -29 45 -5 0 -6 3 -3 6 4 4 0 19 -8 33 -31 58 -75 160 -75 175 0 9 -4 16 -9
16 -5 0 -11 10 -14 23 -3 12 -22 67 -42 122 -20 55 -38 105 -39 112 -5 29 -14
20 -26 -24z"/>
</g>
</svg>
